<?xml version="1.0" standalone="no"?>
<!DOCTYPE svg PUBLIC "-//W3C//DTD SVG 1.1//EN" "http://www.w3.org/Graphics/SVG/1.1/DTD/svg11.dtd">
<svg width="192.576171875" height="74.4140625" viewBox="0 0 192.576171875 76.4140625"
            xmlns="http://www.w3.org/2000/svg" data-copyright="https://github.com/oubenruing/svg-text-animate"
            style="vertical-align: text-top; ">
            <g id="svgGroup" stroke-linecap="round" stroke="#000" fill="none" style="fill:none; 
              stroke:rgb(62, 32, 196);
              stroke-width:2px;">
                <path
                    d="M54.73 17.17L43.27 60L38.35 60L29.71 31.32Q29.09 29.41 28.33 26.51Q27.57 23.61 27.54 23.03L27.54 23.03Q26.89 26.89 25.49 31.49L25.49 31.49L17.11 60L12.19 60L0.79 17.17L6.06 17.17L12.83 43.62Q14.24 49.19 14.88 53.70L14.88 53.70Q15.67 48.34 17.23 43.21L17.23 43.21L24.90 17.17L30.18 17.17L38.23 43.45Q39.64 47.99 40.61 53.70L40.61 53.70Q41.16 49.54 42.71 43.56L42.71 43.56L49.45 17.17L54.73 17.17Z"
                    style="stroke-dasharray: 342px, 344px; stroke-dashoffset: 343px; animation: 300ms linear 0ms 1 normal forwards running STAdraw;">
                </path>
                <path
                    d="M73.07 60.59L73.07 60.59Q65.95 60.59 61.83 56.25Q57.71 51.91 57.71 44.21L57.71 44.21Q57.71 36.45 61.54 31.88Q65.36 27.30 71.81 27.30L71.81 27.30Q77.84 27.30 81.36 31.27Q84.87 35.24 84.87 41.75L84.87 41.75L84.87 44.82L62.75 44.82Q62.90 50.48 65.61 53.41Q68.32 56.34 73.24 56.34L73.24 56.34Q78.43 56.34 83.50 54.17L83.50 54.17L83.50 58.51Q80.92 59.62 78.62 60.10Q76.32 60.59 73.07 60.59ZM71.75 31.38L71.75 31.38Q67.88 31.38 65.58 33.90Q63.28 36.42 62.87 40.87L62.87 40.87L79.66 40.87Q79.66 36.27 77.61 33.82Q75.56 31.38 71.75 31.38Z"
                    style="stroke-dasharray: 186px, 188px; stroke-dashoffset: 187px; animation: 300ms linear 150ms 1 normal forwards running STAdraw;">
                </path>
                <path
                    d="M120 60L115.14 60L115.14 39.23Q115.14 35.30 113.35 33.37Q111.56 31.44 107.75 31.44L107.75 31.44Q102.71 31.44 100.37 34.16Q98.03 36.88 98.03 43.15L98.03 43.15L98.03 60L93.16 60L93.16 27.89L97.12 27.89L97.91 32.29L98.14 32.29Q99.64 29.91 102.33 28.61Q105.03 27.30 108.34 27.30L108.34 27.30Q114.14 27.30 117.07 30.10Q120 32.90 120 39.05L120 39.05L120 60Z"
                    style="stroke-dasharray: 169px, 171px; stroke-dashoffset: 170px; animation: 300ms linear 300ms 1 normal forwards running STAdraw;">
                </path>
                <path
                    d="M144.93 27.36L144.93 27.36Q151.26 27.36 154.76 31.68Q158.26 36.01 158.26 43.92L158.26 43.92Q158.26 51.83 154.73 56.21Q151.20 60.59 144.93 60.59L144.93 60.59Q141.80 60.59 139.20 59.43Q136.61 58.27 134.85 55.87L134.85 55.87L134.50 55.87L133.48 60L129.99 60L129.99 14.41L134.85 14.41L134.85 25.49Q134.85 29.21 134.62 32.17L134.62 32.17L134.85 32.17Q138.25 27.36 144.93 27.36ZM144.23 31.44L144.23 31.44Q139.25 31.44 137.05 34.29Q134.85 37.15 134.85 43.92L134.85 43.92Q134.85 50.68 137.11 53.60Q139.37 56.51 144.35 56.51L144.35 56.51Q148.83 56.51 151.03 53.25Q153.22 49.98 153.22 43.86L153.22 43.86Q153.22 37.59 151.03 34.51Q148.83 31.44 144.23 31.44Z"
                    style="stroke-dasharray: 219px, 221px; stroke-dashoffset: 220px; animation: 300ms linear 450ms 1 normal forwards running STAdraw;">
                </path>
                <path
                    d="M173.41 60.18L160.46 27.89L165.67 27.89L172.71 46.20Q175.02 52.47 175.58 55.25L175.58 55.25L175.81 55.25Q176.19 53.76 177.41 50.14Q178.62 46.52 185.36 27.89L185.36 27.89L190.58 27.89L176.78 64.45Q174.73 69.87 171.99 72.14Q169.25 74.41 165.26 74.41L165.26 74.41Q163.04 74.41 160.87 73.92L160.87 73.92L160.87 70.02Q162.48 70.37 164.47 70.37L164.47 70.37Q169.48 70.37 171.62 64.75L171.62 64.75L173.41 60.18Z"
                    style="stroke-dasharray: 185px, 187px; stroke-dashoffset: 186px; animation: 300ms linear 600ms 1 normal forwards running STAdraw;">
                </path>
            </g>
            <style>
                @keyframes STAdraw {
                    to {
                        stroke-dashoffset: 0
                    }
                }
            </style>
        </svg>