<?xml version="1.0" standalone="no"?>
<!DOCTYPE svg PUBLIC "-//W3C//DTD SVG 1.1//EN" "http://www.w3.org/Graphics/SVG/1.1/DTD/svg11.dtd">
<svg version="1.0" xmlns="http://www.w3.org/2000/svg" xmlns:xlink="http://www.w3.org/1999/xlink" width="100%" height="100%" viewBox="0 0 340.000000 250.000000" preserveAspectRatio="xMidYMid meet" color-interpolation-filters="sRGB" style="margin: auto;" data-v-2cb571da0="">
   
    <rect data-v-2cb57da0="" x="0" y="0" width="100%" height="100%" fill="url(#watermark)" fill-opacity="1" class="watermarklayer"></rect>
    <g data-v-2cb57da0="" fill="#0B5394" class="icon-text-wrapper icon-svg-group iconsvg" transform="translate(56.01000213623047,85.875)">
        <g class="iconsvg-imagesvg" transform="translate(0,19.77078628540039)">
            <g>
                <rect fill="#0B5394" fill-opacity="0" stroke-width="2" x="0" y="0" width="60" height="38.70842876036257" class="image-rect"></rect>
                <svg x="0" y="0" width="60" height="38.70842876036257" filtersec="colorsb526891426" class="image-svg-svg primary" style="overflow: visible;">
                    <svg xmlns="http://www.w3.org/2000/svg" viewBox="0.0015697479248046875 -0.0015095527051016688 211.14657592773438 136.21900939941406">
                        <title>RAG1kB.tif</title>
                        <path d="M101.88.65c8.1 0 16.19.07 24.28 0 4 0 7 1.43 9 4.86Q157 43 178.79 80.52c1.81 3.11 1.17 6-.52 8.87-8.22 14.16-16.34 28.39-24.61 42.52-3.38 5.77-5.67 5.69-8.89.08Q115.1 80.36 85.39 28.76c-4-7-8.11-14-12.11-21C70.15 2.31 71 .83 77.6.72c8.09-.14 16.19 0 24.28 0z" fill="#143d8f"></path>
                        <path d="M29.84.72c7.87 0 15.75.13 23.62 0C57.93.57 61.14 2 63.45 6q21.26 37.11 42.78 74c2.34 4 1.28 7.17-.73 10.62-8 13.76-16 27.58-24 41.31-3.32 5.66-4.73 5.72-8.14-.06C63.77 115.65 54.4 99.29 45 82.94Q23.53 45.59 2.14 8.17C-1.43 1.9-.83.89 6.23.79 14.1.68 22 .76 29.84.76z" fill="#147dc8"></path>
                        <path d="M185.72 51.89c-13.61.17-26.54-11.9-26.9-25.12-.37-13.6 12.25-26.6 26-26.77 13.09-.16 25.89 12.44 26.32 25.91.38 12.52-12.62 25.83-25.42 25.98z" fill="#143d8f"></path>
                    </svg>
                </svg>
            </g>
        </g>
        <g transform="translate(67,0)">
            <g data-gra="path-name" fill-rule="" class="tp-name iconsvg-namesvg" transform="translate(0,0)">
                <g transform="scale(1)">
                    <g>
                        <path d="M41.64 18.84C50.16 18.84 53.4 1.08 53.4-14.82 53.4-23.88 52.38-32.28 50.64-36.48 49.14-40.2 47.16-44.46 42.54-44.46 40.44-44.46 39.6-43.68 39.6-42.54 39.6-39.9 44.16-35.46 47.58-35.34 49.02-31.92 49.74-24.72 49.74-16.74 49.74-1.26 46.98 17.28 40.92 17.28 33.78 17.1 31.38-6.24 30.24-21.66 30-25.02 26.52-27 24.54-27 21.36-27 18.72-19.74 17.16-14.52 13.62-2.76 6.78 9.06 3.78 9.06 1.74 9 1.14 3.3 1.14-3.36 1.14-10.14 1.8-17.28 2.16-18 4.44-22.86 6.96-26.76 7.02-31.98 7.02-33.6 6.48-34.44 4.5-34.44-0.18-34.44-2.04-22.08-2.82-18.6-3.3-17.7-4.5-18-4.5-17.04-4.5-16.56-3.12-16.38-2.76-16.38-2.94-15.06-3.12-12.42-3.12-9.24-3.12-1.02-1.92 10.62 3.6 10.62 11.64 10.62 21.06-19.68 22.86-19.68 23.04-19.68 23.16-19.38 23.16-18.6 23.46-2.76 28.08 18.54 41.64 18.84ZM66.48-1.68C73.86-2.1 78.48-7.26 78.48-10.2 78.18-10.44 77.64-10.62 77.16-10.62 76.74-10.56 76.44-10.44 76.26-9.96 75-5.94 71.58-3.3 66.72-3.06L66.42-3.06C63.96-3.06 63.12-5.16 63.12-7.02 63.12-7.68 63.18-8.28 63.36-8.76 63.72-8.46 64.14-8.04 65.46-8.04L66-8.04C69.36-8.22 71.1-10.2 71.1-12.54 71.1-14.28 69.3-15.18 67.26-15.18L66.84-15.18C66.6-15.12 66.3-15.06 66.06-15.06 62.7-14.58 59.4-10.26 59.4-7.08 59.4-3.54 62.88-1.68 66.06-1.68ZM64.14-9.48L63.66-9.54C63.72-10.5 66.12-12.78 67.08-12.84 67.32-12.84 67.44-12.72 67.44-12.42 67.44-10.92 66.54-9.6 64.56-9.54ZM95.04 3.6C100.56 3.6 104.28-1.14 107.28-9.84L107.28-9.96C107.28-10.2 107.1-10.32 106.86-10.32 106.32-10.32 105.54-9.9 105.36-9.36 102.66-0.6 98.94 1.86 96.66 1.86 95.04 1.86 94.68 0.96 94.68-1.14 94.68-3.36 95.22-6.42 95.22-9.12 95.22-13.02 94.26-15.42 90.18-15.42 84.96-15.18 80.64-2.04 79.56-2.04 79.2-2.04 79.08-2.46 79.08-3.12 79.08-4.92 80.22-8.76 81.3-10.92L81.3-11.16C81.3-11.88 80.7-12.36 79.62-12.36 78.9-12.36 77.94-12.12 76.86-11.52 75.84-10.92 75.18-6.66 75.18-5.52 75.18-3.66 76.38-0.42 78.42-0.42 78.72-0.42 79.08-0.48 79.44-0.66 81.36-1.62 85.2-12.48 89.28-12.48 89.7-12.48 89.88-12.18 89.88-11.64 89.88-10.02 88.14-6.48 87.84-5.46 87.6-4.5 87.48-3.66 87.48-2.88 87.48 1.62 91.14 3 92.82 3.36 93.6 3.54 94.32 3.6 95.04 3.6ZM110.1 2.7C116.16 2.7 126.78-8.28 128.1-9.48 128.4-9.78 128.52-9.96 128.52-10.14 128.52-10.5 127.92-10.56 127.44-10.56 125.94-10.56 118.92-3.72 117.72-3.72 117.6-3.72 117.54-3.78 117.54-3.9 117.54-4.2 117.9-4.86 118.74-6.18 119.22-6.9 119.64-8.1 119.64-9 119.64-10.98 118.14-11.88 116.46-11.88 114-11.88 111.96-10.62 109.86-7.08 111.42-12 113.58-17.46 113.58-26.52L113.58-27.3C113.58-29.7 113.46-34.2 110.64-34.2 106.14-34.2 104.22-26.46 104.22-17.88 104.22-8.4 106.5 1.74 108.78 2.52 109.2 2.64 109.62 2.7 110.1 2.7ZM108.84-11.64C108.96-15.06 108.84-31.98 110.58-32.1 110.94-32.1 111.12-30.72 111.12-28.68 111.12-23.64 110.1-14.4 108.84-11.64ZM110.7-1.74L110.64-2.22C110.64-4.38 112.74-9.3 114.84-9.3 115.26-9.3 115.62-9.06 115.62-8.64 115.62-6.9 111.24-2.04 110.7-1.74ZM136.92 17.4C137.76 17.4 138.6 17.34 139.26 16.8 143.34 13.56 145.26 4.92 146.16-1.32 148.8-4.26 151.74-6.96 155.22-8.76 155.46-8.88 156.48-9.3 156.48-9.6 156.48-10.14 155.64-10.32 155.22-10.32 153-10.32 148.32-6.48 146.34-4.98 146.64-6.3 146.94-7.98 146.94-9.6 146.94-12.12 146.1-14.46 143.04-14.46 141.12-14.46 140.04-12.42 139.56-11.76 137.88-9.24 136.62-1.8 133.2-1.8 132.54-1.8 132.3-2.22 132.3-2.94 132.3-4.44 133.38-7.2 133.38-9.42 133.38-10.86 132.9-12.12 131.28-12.6 131.04-12.66 130.74-12.72 130.38-12.72 128.52-12.72 126-11.4 125.94-8.94 125.94-7.02 126.42 0.84 131.58 0.84 138 0.84 138.78-8.52 140.76-8.64 141.48-8.64 142.56-5.7 142.56-3.06 142.56-2.46 142.5-1.92 142.38-1.38 140.22 1.32 134.7 6.42 134.7 14.58 134.7 15.96 135.3 17.4 136.92 17.4ZM137.52 15.18C137.46 14.58 137.4 14.04 137.4 13.5 137.4 8.58 140.28 4.56 142.02 2.88 141.54 5.7 139.26 12.9 137.52 15.18Z" transform="translate(4.5, 44.459999084472656)"></path>
                    </g>
                </g>
            </g>
            <g data-gra="path-slogan" fill-rule="" class="tp-slogan iconsvg-slogansvg" fill="#3D85C6" transform="translate(5,69.29999923706055)">
                <rect x="0" height="1" y="3.9750003814697266" width="62.069997787475586"></rect>
                <rect height="1" y="3.9750003814697266" width="62.069997787475586" x="88.90999794006348"></rect>
                <g transform="translate(65.06999778747559,0)">
                    <g transform="scale(1)">
                        <path d="M2.10-4.57L2.10-4.57Q2.26-5.00 2.53-5.57Q2.80-6.13 3.09-6.69Q3.38-7.25 3.67-7.74Q3.96-8.23 4.16-8.51L4.16-8.51Q4.40-8.41 4.69-8.25Q4.98-8.09 5.22-7.86L5.22-7.86Q5.39-7.87 5.69-7.93Q6-7.98 6.32-8.05Q6.65-8.11 6.94-8.18Q7.24-8.24 7.38-8.29L7.38-8.29Q7.79-8.10 8.02-7.72Q8.24-7.33 8.44-6.78L8.44-6.78Q7.70-6.97 6.88-7.08Q6.06-7.19 5.28-7.19L5.28-7.19Q5.03-6.97 4.79-6.67Q4.56-6.37 4.36-6.05Q4.15-5.74 3.99-5.45Q3.83-5.16 3.72-4.96L3.72-4.96Q4.14-5.12 4.58-5.12L4.58-5.12Q4.99-5.12 5.33-4.97Q5.66-4.81 5.90-4.54Q6.14-4.26 6.28-3.89Q6.41-3.53 6.41-3.10L6.41-3.10Q6.41-2.44 6-1.81Q5.59-1.18 4.94-0.68Q4.30-0.19 3.50 0.11Q2.70 0.42 1.91 0.43L1.91 0.43Q1.62 0.37 1.32 0.10Q1.02-0.18 0.89-0.66L0.89-0.66Q1.33-0.67 1.85-0.77Q2.36-0.88 2.89-1.07Q3.41-1.26 3.89-1.53Q4.37-1.80 4.74-2.12Q5.11-2.45 5.33-2.83Q5.56-3.20 5.56-3.62L5.56-3.62Q5.56-4.36 4.73-4.36L4.73-4.36Q4.34-4.36 3.94-4.24Q3.53-4.12 3.17-3.88L3.17-3.88Q2.90-3.97 2.59-4.15Q2.27-4.33 2.10-4.57ZM13.90-8.26L13.90-8.26Q14.26-8.17 14.63-7.99Q15.01-7.80 15.22-7.49L15.22-7.49Q14.58-6.61 14.03-5.68Q13.48-4.74 12.97-3.74L12.97-3.74L13.56-3.86Q13.67-3.74 13.68-3.60L13.68-3.60L12.73-3.25Q12.30-2.36 11.98-1.47Q11.65-0.58 11.45 0.37L11.45 0.37Q11.09 0.36 10.75 0.28Q10.42 0.20 10.16-0.07L10.16-0.07Q10.38-0.79 10.64-1.48Q10.91-2.17 11.22-2.87L11.22-2.87Q10.99-2.84 10.70-2.81Q10.40-2.78 10.16-2.78L10.16-2.78Q9.84-2.78 9.49-2.81Q9.14-2.84 8.82-2.93Q8.50-3.02 8.21-3.18Q7.92-3.34 7.70-3.60L7.70-3.60Q8.65-4.68 9.46-5.94Q10.26-7.20 10.87-8.52L10.87-8.52Q11.29-8.39 11.71-8.20Q12.12-8.00 12.47-7.72L12.47-7.72Q12.06-7.25 11.60-6.70Q11.14-6.16 10.69-5.62Q10.24-5.08 9.85-4.58Q9.46-4.09 9.19-3.72L9.19-3.72Q9.50-3.59 9.83-3.53Q10.16-3.48 10.50-3.48L10.50-3.48Q10.73-3.48 11.01-3.49Q11.29-3.50 11.52-3.53L11.52-3.53Q12.11-4.75 12.70-5.92Q13.28-7.09 13.90-8.26ZM15.40-4.57L15.40-4.57Q15.55-5.00 15.82-5.57Q16.09-6.13 16.39-6.69Q16.68-7.25 16.97-7.74Q17.26-8.23 17.46-8.51L17.46-8.51Q17.70-8.41 17.99-8.25Q18.28-8.09 18.52-7.86L18.52-7.86Q18.68-7.87 18.99-7.93Q19.30-7.98 19.62-8.05Q19.94-8.11 20.24-8.18Q20.53-8.24 20.68-8.29L20.68-8.29Q21.08-8.10 21.31-7.72Q21.54-7.33 21.73-6.78L21.73-6.78Q21-6.97 20.18-7.08Q19.36-7.19 18.58-7.19L18.58-7.19Q18.32-6.97 18.09-6.67Q17.86-6.37 17.65-6.05Q17.45-5.74 17.29-5.45Q17.12-5.16 17.02-4.96L17.02-4.96Q17.44-5.12 17.88-5.12L17.88-5.12Q18.29-5.12 18.62-4.97Q18.96-4.81 19.20-4.54Q19.44-4.26 19.57-3.89Q19.70-3.53 19.70-3.10L19.70-3.10Q19.70-2.44 19.30-1.81Q18.89-1.18 18.24-0.68Q17.59-0.19 16.79 0.11Q16.00 0.42 15.20 0.43L15.20 0.43Q14.92 0.37 14.62 0.10Q14.32-0.18 14.18-0.66L14.18-0.66Q14.63-0.67 15.14-0.77Q15.66-0.88 16.18-1.07Q16.70-1.26 17.18-1.53Q17.66-1.80 18.04-2.12Q18.41-2.45 18.63-2.83Q18.85-3.20 18.85-3.62L18.85-3.62Q18.85-4.36 18.02-4.36L18.02-4.36Q17.64-4.36 17.23-4.24Q16.82-4.12 16.46-3.88L16.46-3.88Q16.20-3.97 15.88-4.15Q15.56-4.33 15.40-4.57Z" transform="translate(-0.888, 8.52)"></path>
                    </g>
                </g>
            </g>
        </g>
    </g>
    <defs v-gra="od"></defs>
</svg>